<?xml version="1.0" encoding="utf-8" ?>
<svg xmlns="http://www.w3.org/2000/svg" xmlns:ev="http://www.w3.org/2001/xml-events" xmlns:xlink="http://www.w3.org/1999/xlink" baseProfile="full" height="32px" version="1.1" viewBox="0 0 32 32" width="32px">
  <defs/>
  <g id="xa000e0_r160_g0_b224_a1.0">
    <path d="M 23,24 23,25 22,25 22,26 20,26 20,27 17,27 12,27 12,26 10,26 10,25 9,25 9,24 8,24 8,23 7,23 7,21 6,21 6,19 5,19 5,15 5,14 6,14 6,13 6,12 7,12 7,11 7,10 8,10 8,9 9,9 9,8 10,8 11,8 11,7 12,7 13,7 13,6 14,6 19,6 19,7 21,7 21,8 23,8 23,9 24,9 24,10 25,10 25,12 26,12 26,14 27,14 27,19 26,19 26,21 25,21 25,23 24,23 24,24 z M 19,25 19,24 21,24 21,23 22,23 22,22 23,22 23,21 24,21 24,19 25,19 25,17 25,14 24,14 24,18 23,18 23,20 22,20 22,21 21,21 21,22 20,22 20,23 19,23 18,23 18,24 17,24 12,24 12,25 z M 7,20 8,20 8,21 9,21 9,22 10,22 10,21 11,21 11,22 12,22 12,23 13,23 13,22 14,22 14,23 15,23 15,22 16,22 16,21 17,21 17,22 18,22 18,21 19,21 19,20 20,20 20,19 21,19 21,18 22,18 22,17 21,17 21,16 22,16 22,15 23,15 23,14 22,14 22,13 23,13 23,12 22,12 22,11 21,11 21,9 20,9 20,8 19,8 15,8 12,8 12,9 10,9 10,10 9,10 9,11 8,11 8,13 7,13 z M 11,23 11,24 12,24 12,23 z" fill="#a000e0" fill-opacity="1.0" id="xa000e0_r160_g0_b224_a1.0_shape1"/>
    <path d="M 22,12 22,13 21,13 21,12 z" fill="#a000e0" fill-opacity="1.0" id="xa000e0_r160_g0_b224_a1.0_shape2"/>
    <path d="M 21,13 21,14 20,14 20,13 z" fill="#a000e0" fill-opacity="1.0" id="xa000e0_r160_g0_b224_a1.0_shape3"/>
    <path d="M 21,15 21,14 22,14 22,15 z" fill="#a000e0" fill-opacity="1.0" id="xa000e0_r160_g0_b224_a1.0_shape4"/>
    <path d="M 21,15 21,16 20,16 20,15 z" fill="#a000e0" fill-opacity="1.0" id="xa000e0_r160_g0_b224_a1.0_shape5"/>
    <path d="M 20,16 20,17 19,17 19,16 z" fill="#a000e0" fill-opacity="1.0" id="xa000e0_r160_g0_b224_a1.0_shape6"/>
    <path d="M 19,18 18,18 18,17 19,17 z" fill="#a000e0" fill-opacity="1.0" id="xa000e0_r160_g0_b224_a1.0_shape7"/>
    <path d="M 21,17 21,18 20,18 20,17 z" fill="#a000e0" fill-opacity="1.0" id="xa000e0_r160_g0_b224_a1.0_shape8"/>
    <path d="M 17,18 18,18 18,19 17,19 z" fill="#a000e0" fill-opacity="1.0" id="xa000e0_r160_g0_b224_a1.0_shape9"/>
    <path d="M 19,19 19,18 20,18 20,19 z" fill="#a000e0" fill-opacity="1.0" id="xa000e0_r160_g0_b224_a1.0_shape10"/>
    <path d="M 16,20 16,19 17,19 17,20 z" fill="#a000e0" fill-opacity="1.0" id="xa000e0_r160_g0_b224_a1.0_shape11"/>
    <path d="M 18,20 18,19 19,19 19,20 z" fill="#a000e0" fill-opacity="1.0" id="xa000e0_r160_g0_b224_a1.0_shape12"/>
    <path d="M 15,20 16,20 16,21 15,21 z" fill="#a000e0" fill-opacity="1.0" id="xa000e0_r160_g0_b224_a1.0_shape13"/>
    <path d="M 18,20 18,21 17,21 17,20 z" fill="#a000e0" fill-opacity="1.0" id="xa000e0_r160_g0_b224_a1.0_shape14"/>
    <path d="M 12,21 13,21 13,22 12,22 z" fill="#a000e0" fill-opacity="1.0" id="xa000e0_r160_g0_b224_a1.0_shape15"/>
    <path d="M 14,22 14,21 15,21 15,22 z" fill="#a000e0" fill-opacity="1.0" id="xa000e0_r160_g0_b224_a1.0_shape16"/>
  </g>
  <g id="x00c0c0_r0_g192_b192_a1.0">
    <path d="M 17,18 17,19 16,19 16,20 15,20 15,21 14,21 14,22 13,22 13,21 12,21 12,22 11,22 11,21 10,21 10,22 9,22 9,21 8,21 8,20 7,20 7,19 7,13 8,13 8,11 9,11 9,15 13,15 13,14 14,14 14,13 15,13 15,12 16,12 16,9 14,9 12,9 12,8 18,8 20,8 20,9 21,9 21,11 22,11 22,12 21,12 21,13 20,13 20,14 21,14 21,15 20,15 20,16 19,16 19,17 18,17 18,18 z" fill="#00c0c0" fill-opacity="1.0" id="x00c0c0_r0_g192_b192_a1.0_shape1"/>
    <path d="M 10,9 12,9 12,10 10,10 z" fill="#00c0c0" fill-opacity="1.0" id="x00c0c0_r0_g192_b192_a1.0_shape2"/>
    <path d="M 9,10 10,10 10,11 9,11 z" fill="#00c0c0" fill-opacity="1.0" id="x00c0c0_r0_g192_b192_a1.0_shape3"/>
    <path d="M 22,12 23,12 23,13 22,13 z" fill="#00c0c0" fill-opacity="1.0" id="x00c0c0_r0_g192_b192_a1.0_shape4"/>
    <path d="M 22,14 21,14 21,13 22,13 z" fill="#00c0c0" fill-opacity="1.0" id="x00c0c0_r0_g192_b192_a1.0_shape5"/>
    <path d="M 23,15 22,15 22,14 23,14 z" fill="#00c0c0" fill-opacity="1.0" id="x00c0c0_r0_g192_b192_a1.0_shape6"/>
    <path d="M 22,16 21,16 21,15 22,15 z" fill="#00c0c0" fill-opacity="1.0" id="x00c0c0_r0_g192_b192_a1.0_shape7"/>
    <path d="M 21,16 21,17 20,17 20,16 z" fill="#00c0c0" fill-opacity="1.0" id="x00c0c0_r0_g192_b192_a1.0_shape8"/>
    <path d="M 20,17 20,18 19,18 19,17 z" fill="#00c0c0" fill-opacity="1.0" id="x00c0c0_r0_g192_b192_a1.0_shape9"/>
    <path d="M 22,17 22,18 21,18 21,17 z" fill="#00c0c0" fill-opacity="1.0" id="x00c0c0_r0_g192_b192_a1.0_shape10"/>
    <path d="M 18,19 18,18 19,18 19,19 z" fill="#00c0c0" fill-opacity="1.0" id="x00c0c0_r0_g192_b192_a1.0_shape11"/>
    <path d="M 20,19 20,18 21,18 21,19 z" fill="#00c0c0" fill-opacity="1.0" id="x00c0c0_r0_g192_b192_a1.0_shape12"/>
    <path d="M 18,20 17,20 17,19 18,19 z" fill="#00c0c0" fill-opacity="1.0" id="x00c0c0_r0_g192_b192_a1.0_shape13"/>
    <path d="M 19,19 20,19 20,20 19,20 z" fill="#00c0c0" fill-opacity="1.0" id="x00c0c0_r0_g192_b192_a1.0_shape14"/>
    <path d="M 17,20 17,21 16,21 16,20 z" fill="#00c0c0" fill-opacity="1.0" id="x00c0c0_r0_g192_b192_a1.0_shape15"/>
    <path d="M 18,20 19,20 19,21 18,21 z" fill="#00c0c0" fill-opacity="1.0" id="x00c0c0_r0_g192_b192_a1.0_shape16"/>
    <path d="M 16,22 15,22 15,21 16,21 z" fill="#00c0c0" fill-opacity="1.0" id="x00c0c0_r0_g192_b192_a1.0_shape17"/>
    <path d="M 18,21 18,22 17,22 17,21 z" fill="#00c0c0" fill-opacity="1.0" id="x00c0c0_r0_g192_b192_a1.0_shape18"/>
    <path d="M 13,22 13,23 12,23 12,22 z" fill="#00c0c0" fill-opacity="1.0" id="x00c0c0_r0_g192_b192_a1.0_shape19"/>
    <path d="M 15,22 15,23 14,23 14,22 z" fill="#00c0c0" fill-opacity="1.0" id="x00c0c0_r0_g192_b192_a1.0_shape20"/>
  </g>
  <g id="x600080_r96_g0_b128_a1.0">
    <path d="M 20,27 20,28 14,28 12,28 12,27 14,27 z" fill="#600080" fill-opacity="1.0" id="x600080_r96_g0_b128_a1.0_shape1"/>
    <path d="M 13,6 13,5 18,5 19,5 19,6 18,6 z" fill="#600080" fill-opacity="1.0" id="x600080_r96_g0_b128_a1.0_shape2"/>
    <path d="M 4,14 5,14 5,16 5,19 4,19 4,18 z" fill="#600080" fill-opacity="1.0" id="x600080_r96_g0_b128_a1.0_shape3"/>
    <path d="M 11,6 13,6 13,7 11,7 z" fill="#600080" fill-opacity="1.0" id="x600080_r96_g0_b128_a1.0_shape4"/>
    <path d="M 19,6 21,6 21,7 19,7 z" fill="#600080" fill-opacity="1.0" id="x600080_r96_g0_b128_a1.0_shape5"/>
    <path d="M 11,7 11,8 10,8 9,8 9,7 10,7 z" fill="#600080" fill-opacity="1.0" id="x600080_r96_g0_b128_a1.0_shape6"/>
    <path d="M 22,7 23,7 23,8 22,8 21,8 21,7 z" fill="#600080" fill-opacity="1.0" id="x600080_r96_g0_b128_a1.0_shape7"/>
    <path d="M 7,10 7,12 6,12 6,10 z" fill="#600080" fill-opacity="1.0" id="x600080_r96_g0_b128_a1.0_shape8"/>
    <path d="M 26,12 25,12 25,11 25,10 26,10 26,11 z" fill="#600080" fill-opacity="1.0" id="x600080_r96_g0_b128_a1.0_shape9"/>
    <path d="M 5,12 6,12 6,13 6,14 5,14 5,13 z" fill="#600080" fill-opacity="1.0" id="x600080_r96_g0_b128_a1.0_shape10"/>
    <path d="M 26,12 27,12 27,13 27,14 26,14 26,13 z" fill="#600080" fill-opacity="1.0" id="x600080_r96_g0_b128_a1.0_shape11"/>
    <path d="M 5,19 6,19 6,20 6,21 5,21 5,20 z" fill="#600080" fill-opacity="1.0" id="x600080_r96_g0_b128_a1.0_shape12"/>
    <path d="M 27,21 26,21 26,20 26,19 27,19 27,20 z" fill="#600080" fill-opacity="1.0" id="x600080_r96_g0_b128_a1.0_shape13"/>
    <path d="M 7,22 7,23 6,23 6,22 6,21 7,21 z" fill="#600080" fill-opacity="1.0" id="x600080_r96_g0_b128_a1.0_shape14"/>
    <path d="M 25,23 25,21 26,21 26,23 z" fill="#600080" fill-opacity="1.0" id="x600080_r96_g0_b128_a1.0_shape15"/>
    <path d="M 10,26 12,26 12,27 10,27 z" fill="#600080" fill-opacity="1.0" id="x600080_r96_g0_b128_a1.0_shape16"/>
    <path d="M 21,26 22,26 22,27 21,27 20,27 20,26 z" fill="#600080" fill-opacity="1.0" id="x600080_r96_g0_b128_a1.0_shape17"/>
    <path d="M 8,8 9,8 9,9 8,9 z" fill="#600080" fill-opacity="1.0" id="x600080_r96_g0_b128_a1.0_shape18"/>
    <path d="M 23,8 24,8 24,9 23,9 z" fill="#600080" fill-opacity="1.0" id="x600080_r96_g0_b128_a1.0_shape19"/>
    <path d="M 8,10 7,10 7,9 8,9 z" fill="#600080" fill-opacity="1.0" id="x600080_r96_g0_b128_a1.0_shape20"/>
    <path d="M 24,9 25,9 25,10 24,10 z" fill="#600080" fill-opacity="1.0" id="x600080_r96_g0_b128_a1.0_shape21"/>
    <path d="M 7,23 8,23 8,24 7,24 z" fill="#600080" fill-opacity="1.0" id="x600080_r96_g0_b128_a1.0_shape22"/>
    <path d="M 24,23 25,23 25,24 24,24 z" fill="#600080" fill-opacity="1.0" id="x600080_r96_g0_b128_a1.0_shape23"/>
    <path d="M 8,25 8,24 9,24 9,25 z" fill="#600080" fill-opacity="1.0" id="x600080_r96_g0_b128_a1.0_shape24"/>
    <path d="M 23,25 23,24 24,24 24,25 z" fill="#600080" fill-opacity="1.0" id="x600080_r96_g0_b128_a1.0_shape25"/>
    <path d="M 10,25 10,26 9,26 9,25 z" fill="#600080" fill-opacity="1.0" id="x600080_r96_g0_b128_a1.0_shape26"/>
    <path d="M 22,26 22,25 23,25 23,26 z" fill="#600080" fill-opacity="1.0" id="x600080_r96_g0_b128_a1.0_shape27"/>
  </g>
  <g id="x008000_r0_g128_b0_a1.0">
    <path d="M 24,14 25,14 25,19 24,19 24,21 23,21 23,22 22,22 22,23 21,23 21,24 19,24 19,25 12,25 12,24 18,24 18,23 20,23 20,22 21,22 21,21 22,21 22,20 23,20 23,18 24,18 z" fill="#008000" fill-opacity="1.0" id="x008000_r0_g128_b0_a1.0_shape1"/>
    <path d="M 12,23 12,24 11,24 11,23 z" fill="#008000" fill-opacity="1.0" id="x008000_r0_g128_b0_a1.0_shape2"/>
  </g>
  <g id="xc0c0e0_r192_g192_b224_a1.0">
    <path d="M 12,9 16,9 16,12 15,12 15,13 14,13 14,14 13,14 13,15 9,15 9,11 10,11 10,14 11,14 11,13 13,13 13,11 15,11 15,10 12,10 z" fill="#c0c0e0" fill-opacity="1.0" id="xc0c0e0_r192_g192_b224_a1.0_shape1"/>
    <path d="M 11,10 11,11 10,11 10,10 z" fill="#c0c0e0" fill-opacity="1.0" id="xc0c0e0_r192_g192_b224_a1.0_shape2"/>
  </g>
  <g id="xe0e0a0_r224_g224_b160_a1.0">
    <path d="M 10,13 10,11 11,11 11,10 15,10 15,11 13,11 13,13 11,13 11,14 10,14 z" fill="#e0e0a0" fill-opacity="1.0" id="xe0e0a0_r224_g224_b160_a1.0_shape1"/>
  </g>
</svg>
